<?xml version="1.0" encoding="utf-8"?>
<!-- Generator: Adobe Illustrator 19.0.0, SVG Export Plug-In . SVG Version: 6.00 Build 0)  -->
<svg version="1.1" id="Layer_1" xmlns="http://www.w3.org/2000/svg" xmlns:xlink="http://www.w3.org/1999/xlink" x="0px" y="0px"
	 viewBox="0 0 200 20" style="enable-background:new 0 0 200 20;" xml:space="preserve">
<style type="text/css">
	.st0{fill:#212529;}
</style>
<g id="XMLID_2_">
	<path id="XMLID_3_" class="st0" d="M7.9,19l-4.8-8.7H3V19H0V1h3v7.8h0.1L7.7,1h3.4L5.8,9.3l5.6,9.7H7.9z"/>
	<path id="XMLID_5_" class="st0" d="M13.5,19V1h3v18H13.5z"/>
	<path id="XMLID_7_" class="st0" d="M28.1,19L22.9,6.3h-0.1L22.9,19h-2.7V1h3.5l5.1,12.8h0.1l0-12.8h2.6v18H28.1z"/>
	<path id="XMLID_9_" class="st0" d="M43.8,19c-0.8,0.3-1.7,0.4-2.7,0.4c-1.1,0-2-0.2-2.9-0.7c-0.8-0.4-1.6-1.1-2.1-1.9
		c-0.6-0.8-1-1.8-1.3-3s-0.5-2.4-0.5-3.8c0-1.4,0.2-2.6,0.5-3.8C35,5,35.5,4,36.1,3.2c0.6-0.8,1.3-1.5,2.1-2
		c0.8-0.5,1.7-0.7,2.7-0.7c1.1,0,2,0.2,2.8,0.6c0.8,0.4,1.4,0.9,1.9,1.6l-1.8,2.1c-0.7-1-1.6-1.5-2.7-1.5c-0.6,0-1.2,0.2-1.6,0.5
		c-0.5,0.4-0.9,0.8-1.2,1.4C38,6,37.7,6.7,37.6,7.5s-0.2,1.6-0.2,2.5c0,0.9,0.1,1.8,0.2,2.6c0.2,0.8,0.4,1.5,0.7,2.1
		c0.3,0.6,0.7,1.1,1.2,1.4c0.5,0.3,1,0.5,1.7,0.5c0.4,0,0.8,0,1.1-0.1c0.3-0.1,0.6-0.2,0.8-0.4v-4.7h-2.2V8.8h5v9.1
		C45.2,18.3,44.6,18.7,43.8,19z"/>
	<path id="XMLID_11_" class="st0" d="M56.1,4.5c-0.7-0.8-1.5-1.2-2.5-1.2c-0.3,0-0.6,0-0.8,0.1c-0.3,0.1-0.5,0.2-0.7,0.4
		c-0.2,0.2-0.4,0.5-0.5,0.8c-0.1,0.3-0.2,0.7-0.2,1.1c0,0.8,0.2,1.4,0.7,1.8c0.5,0.4,1.1,0.8,1.8,1.2c0.4,0.2,0.9,0.5,1.3,0.8
		c0.5,0.3,0.9,0.6,1.2,1c0.4,0.4,0.7,0.9,0.9,1.4c0.2,0.6,0.4,1.2,0.4,2c0,0.9-0.1,1.7-0.4,2.3C57,17,56.6,17.6,56.1,18
		c-0.5,0.5-1,0.8-1.6,1.1c-0.6,0.2-1.3,0.4-2,0.4c-1,0-1.9-0.2-2.8-0.6c-0.8-0.4-1.5-0.9-2-1.5l1.7-2.2c0.4,0.5,0.9,0.8,1.4,1.1
		c0.5,0.3,1.1,0.4,1.7,0.4c0.6,0,1.2-0.2,1.6-0.7c0.4-0.4,0.6-1.1,0.6-1.9c0-0.8-0.3-1.4-0.8-1.9c-0.5-0.5-1.2-0.9-1.9-1.3
		c-0.5-0.2-1-0.5-1.4-0.8c-0.4-0.3-0.8-0.6-1.1-1c-0.3-0.4-0.6-0.9-0.8-1.4c-0.2-0.5-0.3-1.2-0.3-1.9c0-0.9,0.1-1.7,0.4-2.4
		c0.3-0.7,0.7-1.2,1.2-1.7c0.5-0.4,1-0.8,1.6-1c0.6-0.2,1.2-0.3,1.9-0.3c0.9,0,1.7,0.1,2.5,0.4c0.7,0.3,1.3,0.7,1.8,1.3L56.1,4.5z"
		/>
	<path id="XMLID_13_" class="st0" d="M75.4,6.3c0,0.9-0.1,1.7-0.4,2.4c-0.3,0.7-0.6,1.3-1.1,1.7c-0.5,0.5-1,0.8-1.6,1
		c-0.6,0.2-1.2,0.3-1.8,0.3h-2.1V19h-3V1h5c0.6,0,1.2,0.1,1.8,0.3c0.6,0.2,1.2,0.5,1.6,0.9c0.5,0.4,0.9,1,1.2,1.6
		C75.3,4.5,75.4,5.3,75.4,6.3z M72.6,6.4c0-1-0.2-1.7-0.7-2.1s-1-0.7-1.8-0.7h-1.7v5.7h1.7c0.7,0,1.3-0.2,1.8-0.7
		C72.3,8,72.6,7.3,72.6,6.4z"/>
	<path id="XMLID_16_" class="st0" d="M90.1,10c0,1.4-0.1,2.7-0.4,3.9c-0.3,1.2-0.7,2.2-1.3,3c-0.6,0.8-1.2,1.5-2,1.9
		c-0.8,0.5-1.7,0.7-2.7,0.7c-1,0-1.9-0.2-2.7-0.7c-0.8-0.5-1.5-1.1-2-1.9c-0.6-0.8-1-1.8-1.3-3c-0.3-1.2-0.4-2.5-0.4-3.9
		s0.1-2.7,0.4-3.9c0.3-1.2,0.7-2.1,1.3-3c0.6-0.8,1.2-1.5,2-1.9c0.8-0.4,1.7-0.7,2.7-0.7c1,0,1.9,0.2,2.7,0.7s1.5,1.1,2,1.9
		c0.6,0.8,1,1.8,1.3,3C90,7.3,90.1,8.6,90.1,10z M87,10c0-0.9-0.1-1.8-0.2-2.6c-0.1-0.8-0.4-1.5-0.6-2.1c-0.3-0.6-0.6-1-1-1.4
		s-0.9-0.5-1.4-0.5c-0.6,0-1,0.2-1.5,0.5s-0.8,0.8-1,1.4c-0.3,0.6-0.5,1.3-0.6,2.1c-0.1,0.8-0.2,1.7-0.2,2.6c0,0.9,0.1,1.8,0.2,2.6
		c0.1,0.8,0.3,1.5,0.6,2.1c0.3,0.6,0.6,1.1,1,1.4s0.9,0.5,1.5,0.5c0.6,0,1-0.2,1.5-0.5s0.8-0.8,1-1.4c0.3-0.6,0.5-1.3,0.6-2.1
		C86.9,11.7,87,10.9,87,10z"/>
	<path id="XMLID_19_" class="st0" d="M100.9,19l-4.8-8.7H96V19H93V1H96v7.8h0.1l4.6-7.8h3.4l-5.3,8.3l5.6,9.7H100.9z"/>
	<path id="XMLID_21_" class="st0" d="M106.5,19V1h8.1v2.7h-5.1v4.8h4.8V11h-4.8v5.3h5.4V19H106.5z"/>
	<path id="XMLID_23_" class="st0" d="M125,19l-2.8-7.7h-1.7V19h-2.9V1h5.1c0.7,0,1.4,0.1,2.1,0.3c0.6,0.2,1.2,0.5,1.6,0.9
		c0.4,0.4,0.8,1,1.1,1.6s0.4,1.4,0.4,2.3c0,0.7-0.1,1.3-0.3,1.8c-0.2,0.5-0.4,1-0.7,1.4c-0.3,0.4-0.6,0.7-0.9,0.9
		c-0.3,0.2-0.7,0.4-1,0.5l3.2,8.3H125z M124.8,6.3c0-0.5-0.1-1-0.2-1.3c-0.2-0.4-0.4-0.6-0.6-0.8c-0.2-0.2-0.5-0.3-0.8-0.4
		c-0.3-0.1-0.6-0.1-0.9-0.1h-1.7v5.5h1.7c0.7,0,1.4-0.2,1.8-0.7C124.5,7.9,124.8,7.2,124.8,6.3z"/>
	<path id="XMLID_26_" class="st0" d="M139.4,3.6V19h-3V3.6H133V1h9.8v2.6H139.4z"/>
	<path id="XMLID_28_" class="st0" d="M151.9,19l-0.9-3.8h-4.7l-0.9,3.8h-3l4.5-18h3.9l4.4,18H151.9z M148.7,3.9h-0.1l-2,8.9h4
		L148.7,3.9z"/>
	<path id="XMLID_31_" class="st0" d="M167.4,14c0,0.9-0.2,1.7-0.5,2.4c-0.3,0.6-0.7,1.2-1.2,1.6c-0.5,0.4-1,0.7-1.6,0.9
		c-0.6,0.2-1.2,0.3-1.8,0.3H157V1h4.8c0.5,0,1.1,0.1,1.7,0.2c0.6,0.1,1.1,0.4,1.6,0.7c0.5,0.3,0.9,0.8,1.2,1.4
		c0.3,0.6,0.5,1.3,0.5,2.3c0,1.1-0.2,2-0.7,2.6c-0.5,0.6-1,1.1-1.7,1.3v0.1c0.3,0.1,0.7,0.2,1,0.4c0.3,0.2,0.7,0.5,1,0.9
		c0.3,0.4,0.5,0.8,0.7,1.3C167.3,12.7,167.4,13.3,167.4,14z M164,6c0-0.5-0.1-0.8-0.2-1.2c-0.1-0.3-0.3-0.6-0.6-0.8
		c-0.2-0.2-0.5-0.3-0.8-0.4c-0.3-0.1-0.6-0.1-0.9-0.1h-1.7v5h1.7c0.3,0,0.6,0,0.9-0.1c0.3-0.1,0.6-0.2,0.8-0.4
		c0.2-0.2,0.4-0.5,0.6-0.8C163.9,6.9,164,6.5,164,6z M164.4,13.7c0-0.5-0.1-1-0.3-1.3c-0.2-0.4-0.4-0.7-0.7-0.9
		c-0.3-0.2-0.6-0.4-0.9-0.5c-0.3-0.1-0.6-0.2-1-0.2h-1.8v5.6h1.9c0.4,0,0.7-0.1,1-0.2c0.3-0.1,0.6-0.3,0.8-0.5
		c0.2-0.2,0.4-0.5,0.6-0.9C164.4,14.6,164.4,14.2,164.4,13.7z"/>
	<path id="XMLID_35_" class="st0" d="M170.2,19V1h3.1v15.2h5V19H170.2z"/>
	<path id="XMLID_37_" class="st0" d="M180.2,19V1h8.1v2.7h-5.1v4.8h4.8V11h-4.8v5.3h5.4V19H180.2z"/>
	<path id="XMLID_39_" class="st0" d="M198.3,4.5c-0.7-0.8-1.5-1.2-2.5-1.2c-0.3,0-0.6,0-0.8,0.1c-0.3,0.1-0.5,0.2-0.7,0.4
		c-0.2,0.2-0.4,0.5-0.5,0.8c-0.1,0.3-0.2,0.7-0.2,1.1c0,0.8,0.2,1.4,0.7,1.8c0.5,0.4,1.1,0.8,1.8,1.2c0.4,0.2,0.9,0.5,1.3,0.8
		c0.5,0.3,0.9,0.6,1.2,1c0.4,0.4,0.7,0.9,0.9,1.4c0.2,0.6,0.4,1.2,0.4,2c0,0.9-0.1,1.7-0.4,2.3c-0.3,0.7-0.7,1.2-1.1,1.7
		c-0.5,0.5-1,0.8-1.6,1.1c-0.6,0.2-1.3,0.4-2,0.4c-1,0-1.9-0.2-2.8-0.6c-0.8-0.4-1.5-0.9-2-1.5l1.7-2.2c0.4,0.5,0.9,0.8,1.4,1.1
		c0.6,0.3,1.1,0.4,1.7,0.4c0.6,0,1.2-0.2,1.6-0.7c0.4-0.4,0.6-1.1,0.6-1.9c0-0.8-0.3-1.4-0.8-1.9c-0.5-0.5-1.2-0.9-1.9-1.3
		c-0.5-0.2-1-0.5-1.4-0.8c-0.4-0.3-0.8-0.6-1.1-1c-0.3-0.4-0.6-0.9-0.8-1.4c-0.2-0.5-0.3-1.2-0.3-1.9c0-0.9,0.1-1.7,0.4-2.4
		c0.3-0.7,0.7-1.2,1.2-1.7c0.5-0.4,1-0.8,1.6-1c0.6-0.2,1.2-0.3,1.9-0.3c0.9,0,1.7,0.1,2.5,0.4c0.7,0.3,1.3,0.7,1.8,1.3L198.3,4.5z"
		/>
</g>
</svg>
